HIERARCHY
ROOT Hips
{
	OFFSET 0.000000 8.830580 0.000000
	CHANNELS 6 Xposition Yposition Zposition Zrotation Yrotation Xrotation 
	JOINT Spine
	{
		OFFSET 0.000000 0.010000 0.000000
		CHANNELS 3 Zrotation Yrotation Xrotation
		JOINT Spine1
		{
			OFFSET 0.000000 2.459130 0.000000
			CHANNELS 3 Zrotation Yrotation Xrotation
			JOINT Neck
			{
				OFFSET 0.000000 2.484630 0.000000
				CHANNELS 3 Zrotation Yrotation Xrotation
				JOINT Head_virtual
				{
					OFFSET 0.000000 0.000000 0.000000
					CHANNELS 3 Zrotation Yrotation Xrotation
					JOINT Head
					{
						OFFSET 0.000000 0.927525 0.000000
						CHANNELS 3 Zrotation Yrotation Xrotation
						End Site
						{
							OFFSET 0.000000 0.000000 0.000000
						}
					}
				}
				JOINT LeftUpArm_virtual
				{
					OFFSET 0.000000 0.000000 0.000000
					CHANNELS 3 Zrotation Yrotation Xrotation
					JOINT LeftUpArm
					{
						OFFSET 1.248820 0.000000 0.000000
						CHANNELS 3 Zrotation Yrotation Xrotation
						JOINT LeftForeArm
						{
							OFFSET 2.597580 0.000000 0.000000
							CHANNELS 3 Zrotation Yrotation Xrotation
							JOINT LeftHand
							{
								OFFSET 2.455420 0.000000 0.000000
								CHANNELS 3 Zrotation Yrotation Xrotation
								End Site
								{
									OFFSET 0.000000 0.000000 0.000000
								}
							}
						}
					}
				}
				JOINT RightUpArm_virtual
				{
					OFFSET -0.000000 -0.000000 -0.000000
					CHANNELS 3 Zrotation Yrotation Xrotation
					JOINT RightUpArm
					{
						OFFSET -1.248820 -0.000000 -0.000000
						CHANNELS 3 Zrotation Yrotation Xrotation
						JOINT RightForeArm
						{
							OFFSET -2.597580 -0.000000 -0.000000
							CHANNELS 3 Zrotation Yrotation Xrotation
							JOINT RightHand
							{
								OFFSET -2.455420 -0.000000 -0.000000
								CHANNELS 3 Zrotation Yrotation Xrotation
								End Site
								{
									OFFSET 0.000000 0.000000 0.000000
								}
							}
						}
					}
				}
			}
		}
	}
	JOINT LeftUpLeg
	{
		OFFSET 1.271939 0.000000 0.000000
		CHANNELS 3 Zrotation Yrotation Xrotation
		JOINT LeftLowLeg
		{
			OFFSET 0.000000 -4.342910 0.000000
			CHANNELS 3 Zrotation Yrotation Xrotation
			JOINT LeftFoot
			{
				OFFSET 0.000000 -4.487670 0.000000
				CHANNELS 3 Zrotation Yrotation Xrotation
				JOINT LeftToeBase
				{
					OFFSET 0.000000 0.000000 1.515070
					CHANNELS 3 Zrotation Yrotation Xrotation
					End Site
					{
						OFFSET 0.000000 0.000000 0.000000
					}
				}
			}
		}
	}
	JOINT RightUpLeg
	{
		OFFSET -1.271939 0.000000 0.000000
		CHANNELS 3 Zrotation Yrotation Xrotation
		JOINT RightLowLeg
		{
			OFFSET 0.000000 -4.342910 0.000000
			CHANNELS 3 Zrotation Yrotation Xrotation
			JOINT RightFoot
			{
				OFFSET 0.000000 -4.487670 0.000000
				CHANNELS 3 Zrotation Yrotation Xrotation
				JOINT RightToeBase
				{
					OFFSET 0.000000 0.000000 1.515070
					CHANNELS 3 Zrotation Yrotation Xrotation
					End Site
					{
						OFFSET 0.000000 0.000000 0.000000
					}
				}
			}
		}
	}
}
MOTION
Frames: 16
Frame Time: 0.041667
-17.654448 9.114734 42.723739 -176.205958 4.360123 -171.853052 1.034790 -0.651332 -9.246552 4.820788 -0.209804 -12.253983 0.000000 0.000000 0.000000 -8.326193 -4.260486 25.243416 14.647406 9.552645 -87.102866 -24.561199 9.498710 -10.206100 15.742400 -14.775400 -23.296900 0.000000 -6.807810 0.000000 30.988800 13.415500 32.256401 20.651199 -4.665280 -3.112000 -14.604700 3.837840 -55.294201 0.000000 15.448700 0.000000 -28.173700 -17.666901 54.595699 1.645145 2.980155 -4.936523 0.000000 0.000000 7.703030 -15.144413 8.380107 -1.473637 0.000000 0.000000 -27.659900 7.797846 4.932742 -4.203325 0.000000 0.000000 7.805130 10.314497 -18.661303 2.908321 0.000000 0.000000 -36.830999 
-17.659623 9.114897 42.725389 -176.178173 4.393973 -171.879943 1.054358 -0.629047 -9.212540 4.828217 -0.193469 -12.236171 0.000000 0.000000 0.000000 -8.337424 -4.268339 25.487189 14.668200 9.533533 -86.988086 -24.570601 9.555920 -10.198600 15.755600 -14.794800 -23.206400 0.000000 -6.758600 0.000000 31.325800 13.021100 32.199200 20.649300 -4.744990 -3.122986 -14.624200 3.863210 -55.542999 0.000000 15.525800 0.000000 -28.357300 -17.585100 54.594898 1.640696 2.929164 -4.916069 0.000000 0.000000 7.706750 -15.122080 8.452644 -1.497571 0.000000 0.000000 -27.642600 7.790207 4.940243 -4.193747 0.000000 0.000000 7.815150 10.334088 -18.637078 2.924477 0.000000 0.000000 -36.802099 
-17.664562 9.115014 42.723163 -176.157124 4.571934 -171.898622 1.006992 -0.545027 -9.436281 4.934968 -0.121951 -11.850127 0.000000 0.000000 0.000000 -8.364940 -4.289875 25.681861 14.621221 9.502902 -86.938403 -24.684099 9.522540 -10.368100 15.801200 -14.787000 -23.018400 0.000000 -6.807600 0.000000 31.707399 12.988000 32.030399 20.621099 -4.745860 -3.273010 -14.673300 3.873080 -55.569401 0.000000 15.533000 0.000000 -28.478701 -17.421000 54.404900 1.608166 3.062207 -4.812398 0.000000 0.000000 7.620690 -15.098494 8.498741 -1.497043 0.000000 0.000000 -27.660700 7.760703 5.013429 -4.167080 0.000000 0.000000 7.821840 10.304616 -18.566422 2.958606 0.000000 0.000000 -36.846100 
-17.669325 9.115229 42.725262 -176.127701 4.564929 -171.934275 1.044591 -0.530914 -9.368736 4.880516 -0.114466 -11.873324 0.000000 0.000000 0.000000 -8.298670 -4.343488 25.937529 14.585110 9.564069 -86.812366 -24.653000 9.569280 -10.361200 15.824600 -14.822400 -23.060900 0.000000 -6.904850 0.000000 31.915899 13.128200 31.786800 20.639999 -4.842300 -3.356995 -14.692200 3.879360 -55.541599 0.000000 15.546800 0.000000 -28.558001 -17.238400 54.352699 1.612491 2.948600 -4.800170 0.000000 0.000000 7.640230 -15.092497 8.599791 -1.537086 0.000000 0.000000 -27.615700 7.767679 5.002344 -4.136151 0.000000 0.000000 7.798140 10.303546 -18.586268 2.992400 0.000000 0.000000 -36.857401 
-17.674136 9.115249 42.728890 -176.130876 4.557861 -171.964960 1.008192 -0.567504 -9.555613 4.925062 -0.170311 -11.394151 0.000000 0.000000 0.000000 -8.314862 -4.286610 26.009711 14.625185 9.580753 -86.797126 -24.726101 9.598750 -10.572500 15.863100 -14.840100 -23.270800 0.000000 -7.074870 0.000000 31.942600 13.464600 31.279900 20.685900 -4.766240 -3.537994 -14.747500 3.876920 -55.670700 0.000000 15.553100 0.000000 -28.514400 -17.035601 54.060799 1.577670 2.987406 -4.820316 0.000000 0.000000 7.685060 -15.051977 8.573533 -1.523529 0.000000 0.000000 -27.616600 7.750904 5.003116 -4.146646 0.000000 0.000000 7.826770 10.261241 -18.666778 2.979990 0.000000 0.000000 -36.773600 
-17.680059 9.115451 42.737485 -176.124764 4.405907 -172.020826 1.088835 -0.607204 -9.281766 4.773531 -0.212547 -11.644382 0.000000 0.000000 0.000000 -8.276929 -4.268899 26.287273 14.727913 9.631514 -86.650866 -24.613899 9.632860 -10.457800 15.814800 -14.853900 -23.856100 0.000000 -7.273640 0.000000 32.064400 13.658800 30.825701 20.689501 -4.878510 -3.428009 -14.721100 3.858860 -55.659801 0.000000 15.541000 0.000000 -28.733101 -16.904699 53.987400 1.566893 2.829166 -4.931205 0.000000 0.000000 7.847560 -15.004700 8.601200 -1.544879 0.000000 0.000000 -27.590800 7.748567 4.821296 -4.182505 0.000000 0.000000 7.887670 10.288707 -18.647666 2.969310 0.000000 0.000000 -36.757000 
-17.684642 9.115355 42.740535 -176.111648 4.491993 -172.061016 1.058188 -0.566127 -9.336740 4.798193 -0.177099 -11.413555 0.000000 0.000000 0.000000 -8.203296 -4.387447 26.446742 14.685028 9.669062 -86.582276 -24.626301 9.678670 -10.496700 15.807000 -14.903800 -24.532301 0.000000 -7.532930 0.000000 32.003201 13.715800 30.372299 20.683901 -4.927750 -3.464996 -14.756500 3.834150 -55.291302 0.000000 15.544300 0.000000 -28.614901 -17.011101 53.303501 1.537242 3.137581 -4.902888 0.000000 0.000000 7.852340 -14.961388 8.396581 -1.495231 0.000000 0.000000 -27.630600 7.731902 4.794051 -4.187024 0.000000 0.000000 7.928950 10.271132 -18.583528 2.982539 0.000000 0.000000 -36.769501 
-17.689475 9.115056 42.744707 -176.104710 4.542366 -172.097466 1.040772 -0.529385 -9.360623 4.795719 -0.144180 -11.261336 0.000000 0.000000 0.000000 -8.171603 -4.440969 26.683302 14.733484 9.670438 -86.446861 -24.616199 9.684410 -10.510600 15.797300 -14.932900 -24.884399 0.000000 -7.819480 0.000000 31.815201 13.753400 30.070101 20.658199 -4.966110 -3.542999 -14.698200 3.848880 -55.569302 0.000000 15.632600 0.000000 -28.487000 -16.976500 53.079800 1.511733 3.229349 -4.873087 0.000000 0.000000 7.827190 -14.951446 8.344551 -1.480779 0.000000 0.000000 -27.662900 7.711238 4.699736 -4.189270 0.000000 0.000000 7.945990 10.235662 -18.488817 3.002503 0.000000 0.000000 -36.758600 
-17.694919 9.114581 42.750431 -176.092560 4.594652 -172.059303 1.073158 -0.497751 -9.411388 4.736544 -0.123798 -11.169527 0.000000 0.000000 0.000000 -8.153315 -4.435959 26.938684 14.809828 9.687925 -86.309978 -24.597799 9.705700 -10.603000 15.802000 -14.995500 -24.854401 0.000000 -8.108020 0.000000 31.515699 13.803000 29.908899 20.661100 -5.002240 -3.641998 -14.663600 3.964540 -55.861401 0.000000 15.578300 0.000000 -28.569099 -16.679600 52.922001 1.489708 3.170216 -4.901960 0.000000 0.000000 7.756530 -14.938676 8.429720 -1.487272 0.000000 0.000000 -27.673400 7.671802 5.026257 -4.212156 0.000000 0.000000 7.849800 10.348578 -18.695946 2.967305 0.000000 0.000000 -36.803600 
-17.699218 9.114907 42.758417 -176.084730 4.580967 -172.091778 1.035801 -0.509442 -9.355483 4.774796 -0.130729 -11.107829 0.000000 0.000000 0.000000 -8.114172 -4.534717 27.241371 14.757872 9.706963 -86.212233 -24.607401 9.714940 -10.667500 15.794100 -15.049300 -24.790600 0.000000 -8.428490 0.000000 31.252001 13.639900 30.200899 20.679800 -5.033030 -3.731995 -14.667900 4.024890 -55.896000 0.000000 15.597100 0.000000 -28.506701 -16.525900 52.675999 1.472297 3.297183 -4.934228 0.000000 0.000000 7.772490 -14.891254 8.314136 -1.430234 0.000000 0.000000 -27.688200 7.661860 4.999633 -4.225345 0.000000 0.000000 7.836410 10.298038 -18.715490 3.007353 0.000000 0.000000 -36.759100 
-17.704406 9.114865 42.765645 -176.081141 4.586607 -172.084391 1.021979 -0.502774 -9.337113 4.781754 -0.124962 -11.032427 0.000000 0.000000 0.000000 -8.099431 -4.581783 27.508051 14.749767 9.725071 -86.149460 -24.563801 9.769290 -10.679900 15.704100 -15.126400 -24.874201 0.000000 -8.822670 0.000000 31.095100 13.447200 30.049999 20.693501 -5.082530 -3.747986 -14.663900 4.060530 -56.039299 0.000000 15.641400 0.000000 -28.302900 -16.329700 52.215599 1.445811 3.285184 -4.965060 0.000000 0.000000 7.726640 -14.848679 8.349438 -1.395493 0.000000 0.000000 -27.732100 7.632648 5.015207 -4.258403 0.000000 0.000000 7.793410 10.280023 -18.731587 3.037527 0.000000 0.000000 -36.773701 
-17.709111 9.114877 42.774046 -176.074194 4.616462 -172.055307 0.994727 -0.495984 -9.318302 4.816043 -0.116225 -10.962423 0.000000 0.000000 0.000000 -8.105294 -4.600130 27.734202 14.845297 9.699210 -86.041049 -24.531000 9.830760 -10.728800 15.616200 -15.204600 -24.931499 0.000000 -9.258480 0.000000 30.889500 13.373700 29.377001 20.662300 -5.101340 -3.718994 -14.636200 4.102330 -56.011501 0.000000 15.623100 0.000000 -28.253401 -16.125200 51.725800 1.415408 3.409603 -5.019839 0.000000 0.000000 7.678170 -14.844345 8.285465 -1.349083 0.000000 0.000000 -27.705700 7.602986 5.033390 -4.318856 0.000000 0.000000 7.744620 10.186962 -18.735515 3.090825 0.000000 0.000000 -36.555300 
-17.714012 9.115214 42.785630 -176.054795 4.624005 -172.005053 1.007457 -0.502392 -9.256119 4.787093 -0.125966 -10.946527 0.000000 0.000000 0.000000 -8.063299 -4.647506 27.978036 14.900362 9.726967 -85.920519 -24.473000 9.870100 -10.703000 15.573200 -15.261000 -24.833500 0.000000 -9.649170 0.000000 30.818701 13.157800 28.648399 20.669901 -5.089620 -3.710999 -14.617400 4.118570 -55.830799 0.000000 15.595500 0.000000 -28.187599 -15.886600 51.389500 1.407328 3.511286 -5.115188 0.000000 0.000000 7.624950 -14.814248 8.208979 -1.276885 0.000000 0.000000 -27.711000 7.584133 5.005652 -4.463216 0.000000 0.000000 7.778640 10.185953 -18.683093 3.138116 0.000000 0.000000 -36.648701 
-17.718422 9.115726 42.797047 -176.026816 4.688344 -171.928307 0.987619 -0.458628 -9.234769 4.793920 -0.080715 -10.884510 0.000000 0.000000 0.000000 -7.977536 -4.794999 28.199718 14.950218 9.745309 -85.775324 -24.436800 9.854790 -10.721800 15.541500 -15.372400 -24.559500 0.000000 -9.978120 0.000000 30.939400 12.681900 28.474701 20.644800 -5.097780 -3.787994 -14.553600 4.121610 -55.775501 0.000000 15.611600 0.000000 -28.078699 -15.520000 50.888599 1.397115 3.776666 -5.231833 0.000000 0.000000 7.581310 -14.834096 8.044904 -1.198093 0.000000 0.000000 -27.730000 7.565459 5.010819 -4.632764 0.000000 0.000000 7.814220 10.191360 -18.598077 3.198805 0.000000 0.000000 -36.714899 
-17.722080 9.116395 42.812327 -175.952724 4.783967 -171.903132 1.013408 -0.407215 -9.060541 4.777941 -0.035497 -10.876402 0.000000 0.000000 0.000000 -7.906844 -4.861073 28.341036 15.110604 9.746264 -85.572087 -24.428301 9.811490 -10.808600 15.570700 -15.439500 -24.307899 0.000000 -10.340000 0.000000 31.102200 12.004800 28.537300 20.638599 -5.108680 -3.855011 -14.458300 4.126120 -55.615002 0.000000 15.675200 0.000000 -28.058800 -15.060600 50.501598 1.454440 4.003875 -5.278399 0.000000 0.000000 7.485560 -14.913233 7.880489 -1.136434 0.000000 0.000000 -27.687500 7.597424 4.881445 -4.826277 0.000000 0.000000 7.952250 10.176981 -18.345426 3.308630 0.000000 0.000000 -36.854799 
-17.723863 9.117015 42.830301 -175.881838 4.959936 -171.848043 0.965012 -0.341260 -8.852098 4.824859 0.039403 -10.848802 0.000000 0.000000 0.000000 -7.817919 -4.904923 28.311962 15.363924 9.747488 -85.370721 -24.397200 9.753020 -10.824700 15.605700 -15.404900 -24.128401 0.000000 -10.788800 0.000000 31.321100 11.541700 28.210600 20.599100 -5.102810 -3.893005 -14.285800 4.102380 -55.540001 0.000000 15.802900 0.000000 -27.989099 -14.742400 49.637100 1.511232 4.499034 -5.376104 0.000000 0.000000 7.424070 -15.014309 7.485690 -1.010109 0.000000 0.000000 -27.778800 7.619170 4.890287 -5.109208 0.000000 0.000000 8.174930 10.200125 -18.110878 3.387300 0.000000 0.000000 -37.081100 
